<?xml version="1.0" encoding="UTF-8"?><!DOCTYPE svg PUBLIC "-//W3C//DTD SVG 1.1//EN" "http://www.w3.org/Graphics/SVG/1.1/DTD/svg11.dtd"><svg xmlns="http://www.w3.org/2000/svg" xmlns:xlink="http://www.w3.org/1999/xlink"><symbol id="arrow" viewBox="0 0 25 14.12">
  <path d="M18.25,14.12l-1.06-1.06,5.25-5.25H0V6.31H22.44L17.19,1.06,18.25,0l6.53,6.53a.75.75,0,0,1,0,1.06Z"/>
</symbol><symbol id="bubble" viewBox="0 0 37 32">
    <path d="M8.9611,14.4298 C8.9611,13.3408 9.8431,12.4588 10.9321,12.4588 C12.0201,12.4588 12.9021,13.3408 12.9021,14.4298 C12.9021,15.5178 12.0201,16.3998 10.9321,16.3998 C9.8431,16.3998 8.9611,15.5178 8.9611,14.4298"/>
    <path d="M16.4498,14.4298 C16.4498,13.3408 17.3318,12.4588 18.4198,12.4588 C19.5088,12.4588 20.3908,13.3408 20.3908,14.4298 C20.3908,15.5178 19.5088,16.3998 18.4198,16.3998 C17.3318,16.3998 16.4498,15.5178 16.4498,14.4298"/>
    <path d="M23.9381,14.4298 C23.9381,13.3408 24.8201,12.4588 25.9091,12.4588 C26.9971,12.4588 27.8791,13.3408 27.8791,14.4298 C27.8791,15.5178 26.9971,16.3998 25.9091,16.3998 C24.8201,16.3998 23.9381,15.5178 23.9381,14.4298"/>
    <path d="M18.4205,0.0001 C8.2475,0.0001 0.0005,6.4601 0.0005,14.4301 C0.0005,18.4211 2.0695,22.0331 5.4135,24.6461 L3.6125,31.7291 L10.6975,27.5161 C13.0485,28.3691 15.6585,28.8581 18.4205,28.8581 C28.5935,28.8581 36.8405,22.3981 36.8405,14.4301 C36.8405,6.4601 28.5935,0.0001 18.4205,0.0001 M18.4205,1.5221 C27.7375,1.5221 35.3185,7.3121 35.3185,14.4301 C35.3185,21.5461 27.7375,27.3361 18.4205,27.3361 C15.9285,27.3361 13.5045,26.9151 11.2165,26.0851 L10.5385,25.8391 L9.9195,26.2081 L5.9935,28.5431 L6.8885,25.0201 L7.1325,24.0581 L6.3505,23.4451 C3.2365,21.0131 1.5225,17.8121 1.5225,14.4301 C1.5225,7.3121 9.1025,1.5221 18.4205,1.5221"/>
</symbol><symbol id="cross" viewBox="0 0 24.41 24.41">
  <polygon points="24.41 1.41 23 0 12.21 10.79 1.41 0 0 1.41 10.79 12.21 0 23 1.41 24.41 12.21 13.62 23 24.41 24.41 23 13.62 12.21 24.41 1.41"/>
</symbol><symbol id="drag" viewBox="0 0 362.667 362.667">
<g>
	<g>
		<path d="M298.667,42.667c-8.768,0-16.939,2.667-23.723,7.211c-5.845-16.597-21.696-28.544-40.277-28.544
			c-8.768,0-16.939,2.667-23.723,7.211C205.099,11.947,189.248,0,170.667,0c-18.581,0-34.432,11.947-40.277,28.544
			c-6.784-4.544-14.955-7.211-23.723-7.211C83.136,21.333,64,40.469,64,64v48.917l-20.8,20.779
			c-14.101,14.123-21.867,32.853-21.867,52.8v32.32c0,19.947,7.765,38.699,21.867,52.821l42.688,42.667
			c31.168,31.189,72.661,48.363,116.779,48.363c76.459,0,138.667-62.208,138.667-138.667V85.333
			C341.333,61.803,322.197,42.667,298.667,42.667z M320,224c0,64.704-52.651,117.333-117.355,117.333
			c-38.421,0-74.539-14.955-101.675-42.112l-42.688-42.667c-10.069-10.091-15.616-23.488-15.616-37.717v-32.32
			c0-14.251,5.547-27.648,15.616-37.717L64,143.083V160c0,5.888,4.779,10.667,10.667,10.667S85.333,165.888,85.333,160v-42.645
			c0-0.021,0-0.021,0-0.043V64c0-11.755,9.557-21.333,21.333-21.333S128,52.245,128,64v32c0,5.888,4.779,10.667,10.667,10.667
			s10.667-4.779,10.667-10.667V42.667c0-11.755,9.557-21.333,21.333-21.333S192,30.912,192,42.667V96
			c0,5.888,4.779,10.667,10.667,10.667s10.667-4.779,10.667-10.667V64c0-11.755,9.557-21.333,21.333-21.333S256,52.245,256,64v32
			c0,5.888,4.779,10.667,10.667,10.667c5.888,0,10.667-4.779,10.667-10.667V85.333c0-11.755,9.557-21.333,21.333-21.333
			S320,73.579,320,85.333V224z"/>
	</g>
</g>
<g>
</g>
<g>
</g>
<g>
</g>
<g>
</g>
<g>
</g>
<g>
</g>
<g>
</g>
<g>
</g>
<g>
</g>
<g>
</g>
<g>
</g>
<g>
</g>
<g>
</g>
<g>
</g>
<g>
</g>
</symbol><symbol id="logo-condensed" viewBox="0 0 29 23">
  <path id="Fill-1" d="M26,17a3,3,0,1,1-3,3,3,3,0,0,1,3-3"/>
  <path id="Fill-3" d="M9.38,16.91A3,3,0,0,1,6.2,14.05a3,3,0,0,1,3.18-2.86,3,3,0,0,1,3.17,2.86,3,3,0,0,1-3.17,2.86m2-11.34a6.42,6.42,0,0,0-4.89,2V.38A.39.39,0,0,0,6.05,0H.42A.4.4,0,0,0,0,.38V21.24a.4.4,0,0,0,.42.37H6.05a.39.39,0,0,0,.41-.37V20a6.58,6.58,0,0,0,4.89,2c4.2,0,7.65-2.85,7.65-8.23,0-5.18-3.38-8.2-7.65-8.2"/>
</symbol><symbol id="logo" viewBox="0 0 755.87 95.67">
    <path d="M744,72a11.84,11.84,0,1,1-11.84,11.84A12,12,0,0,1,744,72"/>
    <path d="M475,72a12.18,12.18,0,1,1,12.18-12.18A12.18,12.18,0,0,1,475,72Zm7.58-48.28a23.45,23.45,0,0,0-18.76,8.69V1.6a1.6,1.6,0,0,0-1.6-1.6H440.6A1.6,1.6,0,0,0,439,1.6V90.41a1.6,1.6,0,0,0,1.6,1.6h21.63a1.6,1.6,0,0,0,1.6-1.6V85c5.66,6.35,12,8.69,18.76,8.69,16.14,0,29.38-12.14,29.38-35,0-22.07-13-34.9-29.38-34.9ZM360.86,33.93l-1.69.83-.83-1.68a22.9,22.9,0,0,1-2.79-9.84,7.91,7.91,0,0,1,2.32-5.75,8.23,8.23,0,0,1,5.84-2.29,7.41,7.41,0,0,1,5.09,2,6.81,6.81,0,0,1,2.12,5,9.94,9.94,0,0,1-3,7.08,24.72,24.72,0,0,1-7,4.71Zm1.2,41.66a20.67,20.67,0,0,1-7.21,1.48,11.22,11.22,0,0,1-8.3-3.73,13.56,13.56,0,0,1-3.41-9.21,13,13,0,0,1,3.19-8.87l1.6-1.84,1.39,2c2.14,3.08,4.44,6.06,6.63,8.93h0c1.57,2.1,4,5,6.86,8.21l1.8,2.05ZM391,73a103.13,103.13,0,0,0,12.08-19,1.61,1.61,0,0,0-.75-2.17l-15.82-7.51a1.6,1.6,0,0,0-2.21,1A60.48,60.48,0,0,1,378.16,58l-4.91-6.27c-1.5-2-3.27-4.23-5-6.68,10.77-4.64,21.4-10.36,21.4-24.41C389.61,7.69,376.39.06,362.48.06c-17.31,0-29,10.09-29,22.49,0,5.87,2.05,12.27,5.05,18.54-10.23,4.91-19.09,12-19.09,25.5,0,18.4,14,27.4,31.77,27.4a45.56,45.56,0,0,0,22.77-6.13c1.5,1.77,3,3.27,4.08,4.5h26.62a1.61,1.61,0,0,0,1.18-2.7C400.61,84,395.69,78.54,391,73Zm291-1a12.18,12.18,0,1,1,12.18-12.18A12.19,12.19,0,0,1,682,72ZM716.37,0H694.74a1.6,1.6,0,0,0-1.6,1.6V32.41a23.45,23.45,0,0,0-18.76-8.69C658,23.72,645,36.55,645,58.62c0,22.9,13.24,35,29.38,35,6.76,0,13.1-2.34,18.76-8.69v5.44a1.6,1.6,0,0,0,1.6,1.6h21.63a1.6,1.6,0,0,0,1.6-1.6V1.6a1.6,1.6,0,0,0-1.6-1.6ZM260.92,23.85c-11.76,0-19.1,4.84-23,9.27v-6a1.61,1.61,0,0,0-1.6-1.61h-21.7a1.61,1.61,0,0,0-1.6,1.61V90.73a1.6,1.6,0,0,0,1.6,1.6h21.7a1.6,1.6,0,0,0,1.6-1.6V51.11c2.08-2.36,5-5.26,10.65-5.26,6,0,9.69,2.63,9.69,9.54V90.73a1.6,1.6,0,0,0,1.6,1.6h21.7a1.6,1.6,0,0,0,1.6-1.6V44.88c0-11.62-6.78-21-22.27-21Zm330.94,27.3.65-1.82A11.65,11.65,0,0,1,595.9,44a12.81,12.81,0,0,1,9.23-3.44c4.35,0,7.5,1.29,9.5,3.27a11.53,11.53,0,0,1,3.26,5.64l.56,1.73Zm13.27-27.3c-21.3,0-35.91,15.43-35.91,34.55,0,21.7,16.11,34.68,36.73,34.68,9.24,0,20.16-2.29,26.89-7.22a1.62,1.62,0,0,0,.41-2.21l-8.38-12.56a1.59,1.59,0,0,0-2.17-.47,27.1,27.1,0,0,1-13.61,3.75c-8.33,0-13.11-4.09-14.48-8.33H639.4V61c0-23.21-14.88-37.14-34.27-37.14Zm-40.66.08c-7.15.6-14.88,4.72-18.71,9.19v-6a1.61,1.61,0,0,0-1.6-1.61h-21.7a1.61,1.61,0,0,0-1.6,1.61V90.73a1.6,1.6,0,0,0,1.6,1.6h21.7a1.6,1.6,0,0,0,1.6-1.6V51.66c2.77-3.32,9.55-4.71,14.8-4.71a25.25,25.25,0,0,1,3.81.27,1.61,1.61,0,0,0,1.87-1.58V25.53a1.62,1.62,0,0,0-1.77-1.6ZM115.11,72c-7.61,0-11.9-5.68-11.9-13.15s4.29-13,11.9-13,12,5.67,12,13S122.86,72,115.11,72Zm0-48.15c-23.66,0-37.49,16.33-37.49,35S91.45,94,115.11,94s37.63-16.46,37.63-35.14-13.83-35-37.63-35Zm89.46.08c-7.16.6-14.88,4.72-18.71,9.19v-6a1.61,1.61,0,0,0-1.61-1.61H162.56A1.61,1.61,0,0,0,161,27.12V90.73a1.61,1.61,0,0,0,1.61,1.6h21.69a1.61,1.61,0,0,0,1.61-1.6V51.66c2.76-3.32,9.54-4.71,14.8-4.71a25.25,25.25,0,0,1,3.81.27,1.6,1.6,0,0,0,1.86-1.58V25.53a1.61,1.61,0,0,0-1.76-1.6ZM36,72A12.18,12.18,0,1,1,48.19,59.82,12.18,12.18,0,0,1,36,72Zm7.58-48.28a23.45,23.45,0,0,0-18.76,8.69V1.6A1.6,1.6,0,0,0,23.23,0H1.6A1.6,1.6,0,0,0,0,1.6V90.41A1.6,1.6,0,0,0,1.6,92H23.23a1.6,1.6,0,0,0,1.6-1.6V85c5.66,6.35,12,8.69,18.76,8.69,16.14,0,29.38-12.14,29.38-35,0-22.07-13-34.9-29.38-34.9Z"/>
</symbol><symbol id="mail" viewBox="0 0 21 16">
  <path id="Shape" d="M21,14.35a3.15,3.15,0,0,1-.32,1.38l-6.4-8.07,6.33-6.25A3.18,3.18,0,0,1,21,2.93ZM10.5,9,20.16.9A2.93,2.93,0,0,0,18.84.57H2.16A2.9,2.9,0,0,0,.84.9Zm2.65-.84-2.2,2a.68.68,0,0,1-.9,0l-2.2-2-7,8a2.65,2.65,0,0,0,1.44.43H18.72a2.65,2.65,0,0,0,1.44-.43ZM.39,1.41A3.18,3.18,0,0,0,0,2.93V14.35a3,3,0,0,0,.33,1.38L6.72,7.65Z" transform="translate(0 -0.57)"/>
</symbol><symbol id="mouse" viewBox="0 0 28 44">
    <path d="M14,44A14,14,0,0,1,0,30V14a14,14,0,0,1,28,0V30A14,14,0,0,1,14,44ZM14,1.5A12.52,12.52,0,0,0,1.5,14V30a12.5,12.5,0,0,0,25,0V14A12.52,12.52,0,0,0,14,1.5Z"/>
    <circle id="Oval" cx="14" cy="13" r="3"/>
</symbol><symbol id="play" viewBox="0 0 20.8 27.74">
  <path d="M0,27.74V0L20.8,13.87Zm2-24V24L17.2,13.87Z"/>
</symbol><symbol id="share" viewBox="0 0 21 24">
  <title>share</title>
  <path d="M18,17.07a3.45,3.45,0,0,0-2.06.69L7.43,12.25a3.82,3.82,0,0,0,.07-.68,3.41,3.41,0,0,0-.35-1.5l7.78-4.86a3.47,3.47,0,1,0-.43-1.64,3.82,3.82,0,0,0,.07.68l-8,5a3.5,3.5,0,1,0,.48,4l8.14,5.27a3.44,3.44,0,0,0-.71,2.09,3.5,3.5,0,1,0,3.5-3.5Zm0-16a2.5,2.5,0,1,1-2.5,2.5A2.5,2.5,0,0,1,18,1.07Zm-14,13a2.5,2.5,0,1,1,2.5-2.5A2.5,2.5,0,0,1,4,14.07Zm14,9a2.5,2.5,0,1,1,2.5-2.5A2.5,2.5,0,0,1,18,23.07Z" transform="translate(-0.5 -0.07)"/>
</symbol><symbol id="small-logo" viewBox="0 0 38 30">
    <path d="M12.34,22.29a4,4,0,0,1-4.18-3.77,4,4,0,0,1,4.18-3.77,4,4,0,0,1,4.17,3.77,4,4,0,0,1-4.17,3.77M14.93,7.35A8.38,8.38,0,0,0,8.51,10V.5A.53.53,0,0,0,8,0H.55A.53.53,0,0,0,0,.5V28a.53.53,0,0,0,.55.5H8a.53.53,0,0,0,.55-.5V26.31A8.62,8.62,0,0,0,14.93,29C20.46,29,25,25.24,25,18.15c0-6.83-4.44-10.8-10.07-10.8"/>
    <path d="M34,22a4,4,0,1,1-4,4,4.05,4.05,0,0,1,4-4" style="fill: #ff64a5"/>
</symbol><symbol id="social-facebook" viewBox="0 0 8.77 19.14">
  <path d="M1.86,19.14H5.79V9.57H8.43L8.77,6.2h-3v-2c0-.75.48-.92.83-.92H8.73V0H5.82a3.71,3.71,0,0,0-4,4V6.2H0V9.57H1.86Z"/>
</symbol><symbol id="social-instagram" viewBox="0 0 17.69 17.93">
  <title>social-instagram</title>
  <path d="M3.42,17.93H14.27a3.45,3.45,0,0,0,3.42-3.47v-11A3.44,3.44,0,0,0,14.27,0H3.42A3.44,3.44,0,0,0,0,3.46v11A3.45,3.45,0,0,0,3.42,17.93ZM15.25,2.06h.39v3h-3v-3ZM6.32,7.12a3.09,3.09,0,0,1,5,0A3.18,3.18,0,0,1,12,9,3.12,3.12,0,1,1,5.73,9,3.18,3.18,0,0,1,6.32,7.12Zm-4.6,0H4.36A5.1,5.1,0,0,0,4,9a4.84,4.84,0,1,0,9.67,0,5.1,5.1,0,0,0-.35-1.84H16v7.34a1.71,1.71,0,0,1-1.7,1.72H3.42a1.71,1.71,0,0,1-1.7-1.72Z"/>
</symbol><symbol id="social-linkedin" viewBox="0 0 20.88 19.43">
  <title>social-linkedin</title>
  <path id="linkedin" d="M20.88,19.43H16.27V12.6c0-1.79-.73-3-2.31-3a2.35,2.35,0,0,0-2.21,1.62,3,3,0,0,0-.1,1.08v7.14H7.08s.06-12.1,0-13.2h4.57V8.3c.27-.9,1.73-2.2,4.07-2.2,2.89,0,5.16,1.9,5.16,6ZM2.46,4.58h0A2.27,2.27,0,0,1,0,2.29,2.3,2.3,0,0,1,2.49,0,2.28,2.28,0,0,1,4.94,2.29,2.29,2.29,0,0,1,2.46,4.58ZM.53,19.43H4.6V6.23H.53Z"/>
</symbol><symbol id="social-twitter" viewBox="0 0 18.96 16.82">
  <title>social-twitter</title>
  <path d="M0,14.9a10.3,10.3,0,0,0,6,1.92C13.12,16.82,17,10.35,17,4.74c0-.18,0-.36,0-.54A8.57,8.57,0,0,0,19,2a7.17,7.17,0,0,1-2.24.67A4.18,4.18,0,0,0,18.44.31a7.78,7.78,0,0,1-2.48,1A3.71,3.71,0,0,0,13.13,0,4.08,4.08,0,0,0,9.24,4.24a4.43,4.43,0,0,0,.1,1,10.78,10.78,0,0,1-8-4.43A4.42,4.42,0,0,0,.79,2.91,4.35,4.35,0,0,0,2.52,6.44,3.7,3.7,0,0,1,.76,5.91V6a4.17,4.17,0,0,0,3.12,4.16,3.47,3.47,0,0,1-1,.14,3.45,3.45,0,0,1-.72-.07,3.92,3.92,0,0,0,3.63,2.94A7.34,7.34,0,0,1,.93,15,7,7,0,0,1,0,14.9Z"/>
</symbol><symbol id="sound-mute" viewBox="0 0 480 480">
<path d="M278.9,17.6c-5.6-2.7-12.1-2-16.9,1.9L106.4,144H32c-17.6,0-32,14.4-32,32v128c0,17.7,14.4,32,32,32h74.4L262,460.5
	c2.9,2.3,6.5,3.5,10,3.5c2.4,0,4.7-0.5,6.9-1.6c5.5-2.7,9.1-8.3,9.1-14.4V32C288,25.9,284.5,20.3,278.9,17.6z"/>
</symbol><symbol id="sound" viewBox="0 0 480 480"><path d="m278.944 17.577c-5.568-2.656-12.128-1.952-16.928 1.92l-155.648 124.512h-74.368c-17.632 0-32 14.368-32 32v128c0 17.664 14.368 32 32 32h74.368l155.616 124.512c2.912 2.304 6.464 3.488 10.016 3.488 2.368 0 4.736-.544 6.944-1.6 5.536-2.656 9.056-8.256 9.056-14.4v-416c0-6.144-3.52-11.744-9.056-14.432z"/><path d="m368.992 126.857c-6.304-6.208-16.416-6.112-22.624.128-6.208 6.304-6.144 16.416.128 22.656 24.192 23.872 37.504 55.968 37.504 90.368s-13.312 66.496-37.504 90.368c-6.272 6.176-6.336 16.32-.128 22.624 3.136 3.168 7.264 4.736 11.36 4.736 4.064 0 8.128-1.536 11.264-4.64 30.336-29.856 47.008-70.048 47.008-113.088s-16.672-83.232-47.008-113.152z"/><path d="m414.144 81.769c-6.304-6.24-16.416-6.176-22.656.096-6.208 6.272-6.144 16.416.096 22.624 36.384 36.064 56.416 84.192 56.416 135.52s-20.032 99.424-56.416 135.488c-6.24 6.24-6.304 16.384-.096 22.656 3.168 3.136 7.264 4.704 11.36 4.704 4.064 0 8.16-1.536 11.296-4.64 42.496-42.08 65.856-98.272 65.856-158.208s-23.36-116.128-65.856-158.24z"/></symbol><symbol id="swipe" viewBox="0 0 56 63">
  <path d="M55.45,22.19,40.38,15.46a5.08,5.08,0,0,0-3.94-.12A5.24,5.24,0,0,0,33.51,18a4.85,4.85,0,0,0-.41,2.72l.11.83-.85,0a5.24,5.24,0,0,0-4.6,3,4.65,4.65,0,0,0-.42,2.72l.1.83-.84,0a5.24,5.24,0,0,0-4.6,3,5.37,5.37,0,0,0-.48,2.13v1.19L9.25,29a4.79,4.79,0,0,0-2.08-.46,5.19,5.19,0,0,0-1.86.34,4.73,4.73,0,0,0-2.85,2.7A5.22,5.22,0,0,0,5,38.44L32.16,50.63,26,52.91a5.18,5.18,0,0,0-3.28,5.76,5,5,0,0,0,2.32,3.49,5.31,5.31,0,0,0,2.82.84,5.22,5.22,0,0,0,1.36-.17l9.61-2.66a1,1,0,1,0-.51-1.85L28.77,61a3.25,3.25,0,0,1-2.61-.36,3,3,0,0,1-1.45-2.28,3.35,3.35,0,0,1,2-3.56l6.14-2.33a2,2,0,0,0,1.29-1.78,1.86,1.86,0,0,0-1.11-1.77L5.89,36.63A3.19,3.19,0,0,1,4.2,34.86a3.13,3.13,0,0,1,.07-2.44A3.26,3.26,0,0,1,6,30.74a3.32,3.32,0,0,1,2.51.08l18.63,8.36a1,1,0,0,0,.75,0,1.09,1.09,0,0,0,.56-.54.91.91,0,0,0,0-.74,1,1,0,0,0-.54-.56l-2.53-1.15a3.18,3.18,0,0,1,.16-5.89,3.23,3.23,0,0,1,2.46.07l4.88,2.18a1,1,0,0,0,.75,0,1.09,1.09,0,0,0,.56-.54.91.91,0,0,0,0-.74,1,1,0,0,0-.54-.56l-2.53-1.15a3,3,0,0,1-1.65-1.82,3.15,3.15,0,0,1,.12-2.42,3.28,3.28,0,0,1,1.74-1.65,3.32,3.32,0,0,1,2.51.08L38.75,26a.93.93,0,0,0,.75,0,1,1,0,0,0,.57-.53.91.91,0,0,0,0-.74,1,1,0,0,0-.54-.56l-2.38-1a1,1,0,0,1-.33-.16,3.18,3.18,0,0,1-1.51-4.15,3.23,3.23,0,0,1,4.24-1.62L54.6,24a1,1,0,0,0,1.31-.5,1,1,0,0,0-.46-1.31ZM7,22.06a1,1,0,0,0,2,0V3.28l5.29,5.07A1,1,0,0,0,15,8.6a1,1,0,0,0,.72-.25A.93.93,0,0,0,15.7,7L8.72.29a1,1,0,0,0-1.44,0L.3,7a1,1,0,0,0-.3.68,1,1,0,0,0,.3.69,1.08,1.08,0,0,0,1.43,0L7,3.28Z"/>
</symbol></svg>